# xmcd
#
# Track frame offsets:
#	150
#	16688
#	32540
#	53882
#	87018
#	102238
#	112812
#	124678
#	139036
#	186126
#	208220
#	228422
#	245099
#	264822
#	279586
#	293308
#
# Disc length: 4539 seconds
#
# Revision: 0
# Processed by: cddbd v1.5.1PL0 Copyright (c) Steve Scherf et al.
# Submitted via: dBpowerAMP V4.0
#
DISCID=cf11b910
DTITLE=Bandas Municipales de la Provincia del Leon - Bandas en el Camino
DYEAR=2005
DGENRE=Big Band
TTITLE0=Bandas en el Camino - Banda de Veguellina de Orbigo - Overture Español
TTITLE1=Bandas en el Camino - Banda de Leon - Ecos Bañezanos
TTITLE2=Bandas en el Camino - Banda de La Bañeza - Fidelidad
TTITLE3=Bandas en el Camino - Banda de Sahagun - Maribel
TTITLE4=Bandas en el Camino - Banda de Astorga - Mi Banda
TTITLE5=Bandas en el Camino - Banda de Mansilla de las Mulas - Despierta Susana
TTITLE6=Bandas en el Camino - Banda de Santa Maria del Paramo - La Adelita
TTITLE7=Bandas en el Camino - Banda de Ponferrada - Expo 70 "To the Janpan World Expo-Osaka-1970"
TTITLE8=Bandas en el Camino - Banda de La Bañeza - Oregon
TTITLE9=Bandas en el Camino - Banda de Leon - Santocildes
TTITLE10=Bandas en el Camino - Banda de Mansilla de las Mulas - Carros de Fuego
TTITLE11=Bandas en el Camino - Banda de Astorga - Estampa Leonesa
TTITLE12=Bandas en el Camino - Banda de Sahagun - Flores de España
TTITLE13=Bandas en el Camino - Banda de Santa Maria del Paramo - Todo Paso
TTITLE14=Bandas en el Camino - Banda de Veguellina de Orbigo - El Huesped del Sevillano
TTITLE15=Bandas en el Camino - Banda de Ponferrada - Aires del Bierzo
EXTD=
EXTT0=
EXTT1=
EXTT2=
EXTT3=
EXTT4=
EXTT5=
EXTT6=
EXTT7=
EXTT8=
EXTT9=
EXTT10=
EXTT11=
EXTT12=
EXTT13=
EXTT14=
EXTT15=
PLAYORDER=
